<svg width="2000px" height="1285px"
 viewBox="0.00 0.00 388.78 249.99" xmlns="http://www.w3.org/2000/svg" xmlns:xlink="http://www.w3.org/1999/xlink">
<g id="graph0" class="graph" transform="scale(1.0 1.0) rotate(0) translate(4 245.99)">
<title>ContextMapGraph</title>
<polygon fill="white" stroke="transparent" points="-4,4 -4,-245.99 384.78,-245.99 384.78,4 -4,4"/>
<!-- Encomenda -->
<g id="node1" class="node">
<title>Encomenda</title>
<polygon fill="none" stroke="black" stroke-width="2" points="247.02,-46.56 247.25,-49.44 247.22,-52.3 246.95,-55.13 246.43,-57.93 245.66,-60.68 244.65,-63.36 243.39,-65.98 241.88,-68.52 240.14,-70.96 238.17,-73.31 235.96,-75.56 233.54,-77.69 230.89,-79.7 228.04,-81.58 224.98,-83.34 221.73,-84.95 218.3,-86.43 214.69,-87.77 210.91,-88.96 206.99,-90.01 202.92,-90.91 198.72,-91.67 194.4,-92.28 189.98,-92.75 185.46,-93.08 180.86,-93.26 176.2,-93.32 171.49,-93.24 166.74,-93.04 161.96,-92.71 157.18,-92.27 152.4,-91.71 147.64,-91.05 142.9,-90.28 138.22,-89.42 133.59,-88.46 129.04,-87.43 124.58,-86.31 120.21,-85.12 115.95,-83.86 111.82,-82.53 107.82,-81.15 103.97,-79.71 100.28,-78.22 96.75,-76.69 93.4,-75.11 90.24,-73.5 87.27,-71.85 84.5,-70.17 81.94,-68.45 79.59,-66.71 77.47,-64.95 75.57,-63.16 73.9,-61.35 72.47,-59.52 71.27,-57.67 70.32,-55.8 69.6,-53.91 69.13,-52.01 68.9,-50.1 68.91,-48.17 69.16,-46.23 69.66,-44.28 70.39,-42.33 71.35,-40.37 72.54,-38.4 73.97,-36.43 75.61,-34.46 77.47,-32.5 79.54,-30.54 81.82,-28.6 84.3,-26.67 86.97,-24.76 89.83,-22.88 92.86,-21.02 96.06,-19.2 99.42,-17.43 102.93,-15.69 106.58,-14.02 110.37,-12.4 114.27,-10.85 118.3,-9.37 122.42,-7.98 126.63,-6.67 130.93,-5.46 135.29,-4.35 139.72,-3.34 144.19,-2.46 148.7,-1.69 153.24,-1.06 157.79,-0.55 162.34,-0.19 166.88,0.03 171.4,0.11 175.89,0.03 180.34,-0.2 184.73,-0.59 189.05,-1.14 193.3,-1.85 197.46,-2.71 201.52,-3.74 205.46,-4.92 209.29,-6.26 212.98,-7.75 216.53,-9.38 219.93,-11.16 223.17,-13.07 226.24,-15.12 229.13,-17.28 231.83,-19.57 234.34,-21.95 236.64,-24.44 238.74,-27.01 240.61,-29.66 242.27,-32.38 243.69,-35.15 244.88,-37.97 245.84,-40.82 246.55,-43.69 247.02,-46.56"/>
<text text-anchor="middle" x="157.78" y="-43.81" font-family="sans-serif" font-size="16.00">Encomenda</text>
</g>
<!-- Sandes -->
<g id="node2" class="node">
<title>Sandes</title>
<polygon fill="none" stroke="black" stroke-width="2" points="132.85,-176.43 134.57,-179.06 136.12,-181.72 137.48,-184.41 138.64,-187.1 139.6,-189.78 140.35,-192.46 140.9,-195.11 141.23,-197.73 141.34,-200.32 141.24,-202.85 140.92,-205.32 140.38,-207.73 139.62,-210.06 138.65,-212.31 137.46,-214.48 136.06,-216.56 134.46,-218.54 132.66,-220.41 130.66,-222.19 128.48,-223.85 126.11,-225.41 123.58,-226.85 120.88,-228.18 118.03,-229.39 115.04,-230.49 111.92,-231.47 108.68,-232.34 105.33,-233.1 101.88,-233.75 98.35,-234.28 94.75,-234.71 91.09,-235.04 87.39,-235.26 83.65,-235.38 79.89,-235.4 76.12,-235.33 72.36,-235.17 68.61,-234.91 64.9,-234.57 61.22,-234.15 57.6,-233.65 54.04,-233.07 50.55,-232.41 47.15,-231.67 43.83,-230.87 40.62,-229.99 37.52,-229.05 34.53,-228.04 31.67,-226.96 28.94,-225.82 26.34,-224.62 23.88,-223.35 21.58,-222.02 19.42,-220.63 17.41,-219.18 15.56,-217.67 13.87,-216.1 12.34,-214.48 10.97,-212.8 9.76,-211.06 8.72,-209.27 7.83,-207.42 7.12,-205.52 6.56,-203.58 6.16,-201.58 5.93,-199.54 5.85,-197.46 5.93,-195.35 6.16,-193.2 6.55,-191.01 7.09,-188.81 7.77,-186.58 8.61,-184.33 9.58,-182.08 10.69,-179.82 11.95,-177.57 13.33,-175.32 14.85,-173.1 16.5,-170.9 18.27,-168.73 20.17,-166.6 22.18,-164.52 24.32,-162.5 26.56,-160.54 28.91,-158.66 31.37,-156.86 33.93,-155.15 36.58,-153.53 39.33,-152.03 42.17,-150.64 45.08,-149.37 48.08,-148.23 51.15,-147.23 54.28,-146.36 57.47,-145.64 60.72,-145.08 64.02,-144.67 67.35,-144.42 70.72,-144.33 74.11,-144.4 77.52,-144.64 80.93,-145.04 84.35,-145.61 87.75,-146.34 91.14,-147.24 94.5,-148.29 97.81,-149.5 101.08,-150.86 104.3,-152.37 107.44,-154.01 110.5,-155.79 113.48,-157.7 116.35,-159.72 119.12,-161.85 121.76,-164.09 124.28,-166.41 126.65,-168.82 128.88,-171.3 130.94,-173.84 132.85,-176.43"/>
<text text-anchor="middle" x="70.78" y="-189.3" font-family="sans-serif" font-size="16.00">Sandes</text>
</g>
<!-- Sandes&#45;&gt;Encomenda -->
<g id="edge1" class="edge">
<title>Sandes&#45;&gt;Encomenda</title>
<path fill="none" stroke="black" stroke-width="2" d="M65.27,-144.52C65.82,-133.77 67.91,-122.73 72.78,-113.21 79.62,-99.85 90.64,-88.47 102.52,-79.17"/>
<text text-anchor="middle" x="148.28" y="-116.61" font-family="sans-serif" font-size="12.00"> &#160;&#160;&#160;&#160;&#160;&#160;&#160;&#160;&#160;&#160;&#160;&#160;&#160;&#160;&#160;&#160;&#160;&#160;&#160;&#160;&#160;&#160;&#160;&#160;&#160;&#160;&#160;&#160;&#160;&#160;&#160;&#160;&#160;&#160;&#160;&#160;&#160;&#160;&#160;</text>
<polygon fill="white" stroke="transparent" points="96.52,-70.17 96.52,-87.17 109.52,-87.17 109.52,-70.17 96.52,-70.17"/>
<text text-anchor="start" x="98.52" y="-75.57" font-family="sans-serif" font-size="12.00">D</text>
<polygon fill="white" stroke="transparent" points="59.27,-135.52 59.27,-152.52 72.27,-152.52 72.27,-135.52 59.27,-135.52"/>
<text text-anchor="start" x="61.27" y="-140.92" font-family="sans-serif" font-size="12.00">U</text>
</g>
<!-- Utilizador -->
<g id="node3" class="node">
<title>Utilizador</title>
<polygon fill="none" stroke="black" stroke-width="2" points="200.72,-157.1 204.82,-155.39 209.03,-153.8 213.31,-152.32 217.67,-150.97 222.07,-149.74 226.5,-148.65 230.96,-147.7 235.41,-146.89 239.85,-146.24 244.26,-145.73 248.62,-145.37 252.93,-145.18 257.17,-145.13 261.32,-145.25 265.38,-145.52 269.34,-145.94 273.19,-146.52 276.91,-147.25 280.5,-148.13 283.95,-149.15 287.26,-150.32 290.42,-151.61 293.42,-153.04 296.26,-154.59 298.95,-156.26 301.47,-158.04 303.82,-159.92 306.01,-161.89 308.02,-163.96 309.88,-166.1 311.56,-168.31 313.07,-170.58 314.42,-172.91 315.61,-175.28 316.63,-177.68 317.49,-180.11 318.19,-182.56 318.73,-185.02 319.11,-187.48 319.34,-189.93 319.41,-192.37 319.33,-194.78 319.11,-197.17 318.73,-199.51 318.2,-201.82 317.52,-204.08 316.7,-206.28 315.73,-208.42 314.61,-210.5 313.35,-212.51 311.94,-214.45 310.39,-216.31 308.69,-218.09 306.85,-219.79 304.86,-221.41 302.73,-222.93 300.46,-224.37 298.04,-225.72 295.49,-226.98 292.79,-228.15 289.96,-229.23 287,-230.21 283.9,-231.1 280.68,-231.9 277.33,-232.6 273.86,-233.22 270.28,-233.74 266.6,-234.16 262.81,-234.5 258.93,-234.75 254.97,-234.9 250.93,-234.97 246.83,-234.95 242.67,-234.83 238.47,-234.63 234.25,-234.34 230,-233.96 225.75,-233.49 221.51,-232.93 217.29,-232.28 213.11,-231.55 208.98,-230.73 204.92,-229.82 200.95,-228.83 197.08,-227.75 193.32,-226.58 189.69,-225.33 186.21,-223.99 182.89,-222.57 179.74,-221.07 176.78,-219.48 174.03,-217.82 171.49,-216.08 169.17,-214.27 167.1,-212.39 165.27,-210.43 163.7,-208.41 162.39,-206.33 161.36,-204.2 160.6,-202.01 160.12,-199.77 159.93,-197.49 160.02,-195.17 160.4,-192.82 161.07,-190.45 162.02,-188.05 163.24,-185.65 164.74,-183.25 166.51,-180.85 168.54,-178.46 170.82,-176.09 173.34,-173.76 176.09,-171.46 179.06,-169.2 182.24,-167 185.61,-164.86 189.16,-162.79 192.87,-160.8 196.73,-158.9 200.72,-157.1"/>
<text text-anchor="middle" x="245.78" y="-189.3" font-family="sans-serif" font-size="16.00">Utilizador</text>
</g>
<!-- Utilizador&#45;&gt;Encomenda -->
<g id="edge2" class="edge">
<title>Utilizador&#45;&gt;Encomenda</title>
<path fill="none" stroke="black" stroke-width="2" d="M237.33,-146.22C234.11,-134.95 229.72,-123.25 223.78,-113.21 219.05,-105.21 213.07,-97.52 206.66,-90.4"/>
<text text-anchor="middle" x="305.28" y="-116.61" font-family="sans-serif" font-size="12.00"> &#160;&#160;&#160;&#160;&#160;&#160;&#160;&#160;&#160;&#160;&#160;&#160;&#160;&#160;&#160;&#160;&#160;&#160;&#160;&#160;&#160;&#160;&#160;&#160;&#160;&#160;&#160;&#160;&#160;&#160;&#160;&#160;&#160;&#160;&#160;&#160;&#160;&#160;&#160;</text>
<polygon fill="white" stroke="transparent" points="200.66,-81.4 200.66,-98.4 213.66,-98.4 213.66,-81.4 200.66,-81.4"/>
<text text-anchor="start" x="202.66" y="-86.8" font-family="sans-serif" font-size="12.00">D</text>
<polygon fill="white" stroke="transparent" points="231.33,-137.22 231.33,-154.22 244.33,-154.22 244.33,-137.22 231.33,-137.22"/>
<text text-anchor="start" x="233.33" y="-142.62" font-family="sans-serif" font-size="12.00">U</text>
</g>
</g>
</svg>
